<?xml version="1.0" encoding="UTF-8"?>
<svg width="820" height="380" viewBox="0 0 820 380" xmlns="http://www.w3.org/2000/svg" role="img" aria-label="Authentication and recovery flow">
  <defs>
    <marker id="arrAuth" viewBox="0 0 10 10" refX="9" refY="5" markerWidth="8" markerHeight="8" orient="auto-start-reverse">
      <path d="M0 0 L10 5 L0 10 z" fill="#6b6557"/>
    </marker>
    <marker id="arrRec" viewBox="0 0 10 10" refX="9" refY="5" markerWidth="8" markerHeight="8" orient="auto-start-reverse">
      <path d="M0 0 L10 5 L0 10 z" fill="#d4744f"/>
    </marker>
  </defs>

  <!-- API key path -->
  <rect x="40" y="50" width="180" height="90" rx="14" fill="#ffffff" stroke="#d4744f" stroke-width="2"/>
  <circle cx="80" cy="90" r="22" fill="#f7e8df"/>
  <circle cx="80" cy="86" r="8" fill="none" stroke="#d4744f" stroke-width="3"/>
  <rect x="77" y="92" width="6" height="16" rx="2" fill="#d4744f"/>
  <text x="130" y="122" font-family="system-ui, -apple-system, sans-serif" font-size="13" font-weight="700" fill="#2b2825" text-anchor="middle">API key sign-in</text>
  <text x="130" y="136" font-family="system-ui, -apple-system, sans-serif" font-size="10" fill="#6b6557" text-anchor="middle">kv_live_… (Bearer)</text>

  <!-- email+password path -->
  <rect x="40" y="180" width="180" height="90" rx="14" fill="#ffffff" stroke="#d4744f" stroke-width="2"/>
  <circle cx="80" cy="220" r="22" fill="#f7e8df"/>
  <rect x="68" y="214" width="24" height="16" rx="2" fill="none" stroke="#d4744f" stroke-width="2.5"/>
  <path d="M68 216 L80 224 L92 216" fill="none" stroke="#d4744f" stroke-width="2.5" stroke-linejoin="round"/>
  <text x="130" y="252" font-family="system-ui, -apple-system, sans-serif" font-size="13" font-weight="700" fill="#2b2825" text-anchor="middle">Email + password</text>
  <text x="130" y="266" font-family="system-ui, -apple-system, sans-serif" font-size="10" fill="#6b6557" text-anchor="middle">retrieves the lost key</text>

  <path d="M225 95 C 300 95, 340 140, 400 160" fill="none" stroke="#6b6557" stroke-width="2" marker-end="url(#arrAuth)"/>
  <path d="M225 225 C 300 225, 340 180, 400 160" fill="none" stroke="#6b6557" stroke-width="2" marker-end="url(#arrAuth)"/>
  <text x="312" y="118" font-family="system-ui, -apple-system, sans-serif" font-size="10" font-style="italic" fill="#6b6557" text-anchor="middle">verifies credential</text>

  <!-- Dashboard -->
  <rect x="410" y="110" width="180" height="110" rx="16" fill="#ffffff" stroke="#d4744f" stroke-width="2.5"/>
  <rect x="410" y="110" width="180" height="28" rx="16" fill="#d4744f"/>
  <rect x="410" y="124" width="180" height="14" fill="#d4744f"/>
  <text x="500" y="129" font-family="system-ui, -apple-system, sans-serif" font-size="13" font-weight="700" fill="#ffffff" text-anchor="middle">Dashboard</text>
  <rect x="425" y="150" width="48" height="56" rx="6" fill="#f7e8df"/>
  <rect x="481" y="150" width="48" height="26" rx="6" fill="#e8e5dc"/>
  <rect x="481" y="182" width="48" height="24" rx="6" fill="#ece9e1"/>
  <rect x="537" y="150" width="40" height="56" rx="6" fill="#f7e8df"/>
  <circle cx="449" cy="178" r="10" fill="#d4744f"/>
  <path d="M444 178 L448 182 L455 174" stroke="#ffffff" stroke-width="2" fill="none" stroke-linecap="round" stroke-linejoin="round"/>
  <text x="500" y="240" font-family="system-ui, -apple-system, sans-serif" font-size="11" font-style="italic" fill="#6b6557" text-anchor="middle">realtime session</text>

  <!-- Telegram manifest (recovery source) -->
  <rect x="640" y="110" width="140" height="110" rx="14" fill="#2b2825" stroke="#d4744f" stroke-width="2"/>
  <rect x="640" y="110" width="140" height="24" rx="14" fill="#1a1815"/>
  <path d="M760 116 L768 124 L764 128 L770 134 L766 138 L760 132 L756 136 L752 132 L758 126 L754 122 z" fill="#d4744f"/>
  <text x="710" y="128" font-family="system-ui, -apple-system, sans-serif" font-size="11" font-weight="700" fill="#ffffff" text-anchor="middle">Telegram manifest</text>
  <rect x="656" y="146" width="100" height="6" rx="3" fill="#e09a7a"/>
  <rect x="656" y="158" width="80" height="6" rx="3" fill="#6b6557"/>
  <rect x="656" y="170" width="108" height="6" rx="3" fill="#6b6557"/>
  <rect x="656" y="182" width="70" height="6" rx="3" fill="#6b6557"/>
  <rect x="656" y="196" width="90" height="6" rx="3" fill="#4a463f"/>
  <text x="710" y="240" font-family="system-ui, -apple-system, sans-serif" font-size="10" font-style="italic" fill="#6b6557" text-anchor="middle">pinned · self-healing</text>

  <path d="M635 165 L595 165" fill="none" stroke="#d4744f" stroke-width="2.5" stroke-dasharray="6 4" marker-end="url(#arrRec)"/>
  <text x="615" y="156" font-family="system-ui, -apple-system, sans-serif" font-size="10" font-style="italic" fill="#d4744f" text-anchor="middle">recover</text>

  <!-- bottom: tempmail blocker shield on the email path -->
  <rect x="640" y="280" width="140" height="80" rx="12" fill="#ffffff" stroke="#d9d4c7" stroke-width="1.5"/>
  <path d="M660 298 L660 316 Q660 330 672 336 Q684 330 684 316 L684 298 L672 294 z" fill="#f7e8df" stroke="#d4744f" stroke-width="1.5" stroke-linejoin="round"/>
  <path d="M668 312 L671 315 L677 309" stroke="#d4744f" stroke-width="2" fill="none" stroke-linecap="round" stroke-linejoin="round"/>
  <rect x="694" y="300" width="74" height="6" rx="3" fill="#ece9e1"/>
  <rect x="694" y="312" width="60" height="6" rx="3" fill="#ece9e1"/>
  <rect x="694" y="324" width="70" height="6" rx="3" fill="#f7e8df"/>
  <circle cx="672" cy="315" r="22" fill="none" stroke="#c0392b" stroke-width="3" opacity="0.8"/>
  <path d="M658 301 L686 329 M686 301 L658 329" stroke="#c0392b" stroke-width="3" stroke-linecap="round" opacity="0.8"/>
  <text x="710" y="350" font-family="system-ui, -apple-system, sans-serif" font-size="10" font-weight="600" fill="#c0392b" text-anchor="middle">tempmail · mailinator · blocked</text>

  <path d="M130 275 C 130 320, 600 320, 670 280" fill="none" stroke="#c0392b" stroke-width="1.5" stroke-dasharray="4 4" opacity="0.6"/>
  <text x="380" y="298" font-family="system-ui, -apple-system, sans-serif" font-size="10" font-style="italic" fill="#c0392b" text-anchor="middle" opacity="0.85">disposable emails blocked at signup</text>

  <text x="410" y="375" font-family="system-ui, -apple-system, sans-serif" font-size="11" font-style="italic" fill="#6b6557" text-anchor="middle">Sign in via API key OR email + password → dashboard. Lose your key? Recover it from the Telegram pinned manifest.</text>
</svg>
