<?xml version="1.0" encoding="UTF-8"?>
<svg width="720" height="180" viewBox="0 0 720 180" xmlns="http://www.w3.org/2000/svg" role="img" aria-label="Color palette">
  <rect x="20" y="20" width="100" height="120" rx="12" fill="#d4744f"/>
  <rect x="20" y="120" width="100" height="20" fill="#8a3f23" rx="0"/>
  <rect x="20" y="20" width="100" height="120" rx="12" fill="none" stroke="#2b2825" stroke-width="1" stroke-opacity="0.1"/>

  <rect x="135" y="20" width="100" height="120" rx="12" fill="#e09a7a"/>
  <rect x="135" y="20" width="100" height="120" rx="12" fill="none" stroke="#2b2825" stroke-width="1" stroke-opacity="0.1"/>

  <rect x="250" y="20" width="100" height="120" rx="12" fill="#f7e8df"/>
  <rect x="250" y="20" width="100" height="120" rx="12" fill="none" stroke="#d9d4c7" stroke-width="1.5"/>

  <rect x="365" y="20" width="100" height="120" rx="12" fill="#f4f3ee"/>
  <rect x="365" y="20" width="100" height="120" rx="12" fill="none" stroke="#d9d4c7" stroke-width="1.5"/>

  <rect x="480" y="20" width="100" height="120" rx="12" fill="#ffffff"/>
  <rect x="480" y="20" width="100" height="120" rx="12" fill="none" stroke="#d9d4c7" stroke-width="1.5"/>

  <rect x="595" y="20" width="100" height="120" rx="12" fill="#2b2825"/>
  <rect x="595" y="20" width="100" height="120" rx="12" fill="none" stroke="#000000" stroke-width="1" stroke-opacity="0.2"/>

  <rect x="20" y="150" width="60" height="14" rx="4" fill="#b1ada1"/>
  <rect x="90" y="150" width="60" height="14" rx="4" fill="#6b6557"/>
  <rect x="160" y="150" width="60" height="14" rx="4" fill="#8a7e6a"/>
  <rect x="230" y="150" width="60" height="14" rx="4" fill="#e8e5dc"/>
  <rect x="300" y="150" width="60" height="14" rx="4" fill="#d9d4c7"/>
  <rect x="370" y="150" width="60" height="14" rx="4" fill="#c0392b"/>
  <rect x="440" y="150" width="60" height="14" rx="4" fill="#efede5"/>
  <rect x="510" y="150" width="60" height="14" rx="4" fill="#ece9e1"/>
  <rect x="580" y="150" width="60" height="14" rx="4" fill="#1a1815"/>
</svg>
