<?xml version="1.0" encoding="UTF-8"?>
<svg width="720" height="280" viewBox="0 0 720 280" xmlns="http://www.w3.org/2000/svg" role="img" aria-label="Color palette">

  <!-- Title bar (Task ID 9: svg-text-enhancer) -->
  <text x="360" y="22" font-family="system-ui, -apple-system, sans-serif" font-size="18" font-weight="700" fill="#2b2825" text-anchor="middle">Onyx Base — Color Palette</text>
  <text x="360" y="36" font-family="system-ui, -apple-system, sans-serif" font-size="11" fill="#6b6557" text-anchor="middle">Clay-orange primary, warm neutrals, ink text</text>

  <g transform="translate(0 40)">
  <rect x="20" y="20" width="100" height="120" rx="12" fill="#d4744f"/>
  <rect x="20" y="120" width="100" height="20" fill="#8a3f23" rx="0"/>
  <rect x="20" y="20" width="100" height="120" rx="12" fill="none" stroke="#2b2825" stroke-width="1" stroke-opacity="0.1"/>

  <rect x="135" y="20" width="100" height="120" rx="12" fill="#e09a7a"/>
  <rect x="135" y="20" width="100" height="120" rx="12" fill="none" stroke="#2b2825" stroke-width="1" stroke-opacity="0.1"/>

  <rect x="250" y="20" width="100" height="120" rx="12" fill="#f7e8df"/>
  <rect x="250" y="20" width="100" height="120" rx="12" fill="none" stroke="#d9d4c7" stroke-width="1.5"/>

  <rect x="365" y="20" width="100" height="120" rx="12" fill="#f4f3ee"/>
  <rect x="365" y="20" width="100" height="120" rx="12" fill="none" stroke="#d9d4c7" stroke-width="1.5"/>

  <rect x="480" y="20" width="100" height="120" rx="12" fill="#ffffff"/>
  <rect x="480" y="20" width="100" height="120" rx="12" fill="none" stroke="#d9d4c7" stroke-width="1.5"/>

  <rect x="595" y="20" width="100" height="120" rx="12" fill="#2b2825"/>
  <rect x="595" y="20" width="100" height="120" rx="12" fill="none" stroke="#000000" stroke-width="1" stroke-opacity="0.2"/>

  <!-- Large swatch labels (name + hex) -->
  <text x="70" y="158" font-family="system-ui, -apple-system, sans-serif" font-size="11" font-weight="700" fill="#2b2825" text-anchor="middle">Primary</text>
  <text x="70" y="172" font-family="system-ui, -apple-system, monospace" font-size="10" fill="#6b6557" text-anchor="middle">#d4744f</text>

  <text x="185" y="158" font-family="system-ui, -apple-system, sans-serif" font-size="11" font-weight="700" fill="#2b2825" text-anchor="middle">Light clay</text>
  <text x="185" y="172" font-family="system-ui, -apple-system, monospace" font-size="10" fill="#6b6557" text-anchor="middle">#e09a7a</text>

  <text x="300" y="158" font-family="system-ui, -apple-system, sans-serif" font-size="11" font-weight="700" fill="#2b2825" text-anchor="middle">Clay tint</text>
  <text x="300" y="172" font-family="system-ui, -apple-system, monospace" font-size="10" fill="#6b6557" text-anchor="middle">#f7e8df</text>

  <text x="415" y="158" font-family="system-ui, -apple-system, sans-serif" font-size="11" font-weight="700" fill="#2b2825" text-anchor="middle">Cream</text>
  <text x="415" y="172" font-family="system-ui, -apple-system, monospace" font-size="10" fill="#6b6557" text-anchor="middle">#f4f3ee</text>

  <text x="530" y="158" font-family="system-ui, -apple-system, sans-serif" font-size="11" font-weight="700" fill="#2b2825" text-anchor="middle">White</text>
  <text x="530" y="172" font-family="system-ui, -apple-system, monospace" font-size="10" fill="#6b6557" text-anchor="middle">#ffffff</text>

  <text x="645" y="158" font-family="system-ui, -apple-system, sans-serif" font-size="11" font-weight="700" fill="#2b2825" text-anchor="middle">Ink</text>
  <text x="645" y="172" font-family="system-ui, -apple-system, monospace" font-size="10" fill="#6b6557" text-anchor="middle">#2b2825</text>

  <!-- Small swatches row -->
  <rect x="20" y="190" width="60" height="14" rx="4" fill="#b1ada1"/>
  <rect x="90" y="190" width="60" height="14" rx="4" fill="#6b6557"/>
  <rect x="160" y="190" width="60" height="14" rx="4" fill="#8a7e6a"/>
  <rect x="230" y="190" width="60" height="14" rx="4" fill="#e8e5dc"/>
  <rect x="300" y="190" width="60" height="14" rx="4" fill="#d9d4c7"/>
  <rect x="370" y="190" width="60" height="14" rx="4" fill="#c0392b"/>
  <rect x="440" y="190" width="60" height="14" rx="4" fill="#efede5"/>
  <rect x="510" y="190" width="60" height="14" rx="4" fill="#ece9e1"/>
  <rect x="580" y="190" width="60" height="14" rx="4" fill="#1a1815"/>

  <!-- Small swatch hex labels -->
  <text x="50" y="218" font-family="system-ui, -apple-system, monospace" font-size="9" fill="#6b6557" text-anchor="middle">#b1ada1</text>
  <text x="120" y="218" font-family="system-ui, -apple-system, monospace" font-size="9" fill="#6b6557" text-anchor="middle">#6b6557</text>
  <text x="190" y="218" font-family="system-ui, -apple-system, monospace" font-size="9" fill="#6b6557" text-anchor="middle">#8a7e6a</text>
  <text x="260" y="218" font-family="system-ui, -apple-system, monospace" font-size="9" fill="#6b6557" text-anchor="middle">#e8e5dc</text>
  <text x="330" y="218" font-family="system-ui, -apple-system, monospace" font-size="9" fill="#6b6557" text-anchor="middle">#d9d4c7</text>
  <text x="400" y="218" font-family="system-ui, -apple-system, monospace" font-size="9" fill="#6b6557" text-anchor="middle">#c0392b</text>
  <text x="470" y="218" font-family="system-ui, -apple-system, monospace" font-size="9" fill="#6b6557" text-anchor="middle">#efede5</text>
  <text x="540" y="218" font-family="system-ui, -apple-system, monospace" font-size="9" fill="#6b6557" text-anchor="middle">#ece9e1</text>
  <text x="610" y="218" font-family="system-ui, -apple-system, monospace" font-size="9" fill="#6b6557" text-anchor="middle">#1a1815</text>

  <text x="335" y="235" font-family="system-ui, -apple-system, sans-serif" font-size="10" font-style="italic" fill="#6b6557" text-anchor="middle">Supporting tones — borders, muted text, destructive.</text>
  </g>

</svg>