<?xml version="1.0" encoding="UTF-8"?>
<svg width="780" height="320" viewBox="0 0 780 320" xmlns="http://www.w3.org/2000/svg" role="img" aria-label="Tech stack layers">
  <!-- Telegram layer -->
  <rect x="20" y="20" width="740" height="64" rx="12" fill="#d4744f"/>
  <rect x="20" y="60" width="740" height="24" fill="#8a3f23"/>
  <g transform="translate(50 36)">
    <ellipse cx="20" cy="22" rx="20" ry="9" fill="#ffffff" opacity="0.9"/>
    <circle cx="8" cy="18" r="8" fill="#ffffff" opacity="0.9"/>
    <circle cx="22" cy="14" r="11" fill="#ffffff" opacity="0.9"/>
    <circle cx="36" cy="18" r="9" fill="#ffffff" opacity="0.9"/>
    <path d="M16 23 L30 18 L22 24 L26 26 z" fill="#d4744f"/>
  </g>
  <rect x="100" y="44" width="200" height="10" rx="5" fill="#ffffff" opacity="0.5"/>
  <rect x="100" y="60" width="140" height="8" rx="4" fill="#ffffff" opacity="0.35"/>
  <circle cx="710" cy="52" r="14" fill="#ffffff" opacity="0.2"/>
  <circle cx="710" cy="52" r="7" fill="#ffffff" opacity="0.5"/>

  <!-- Next.js API layer -->
  <rect x="20" y="96" width="740" height="64" rx="12" fill="#ffffff" stroke="#d9d4c7" stroke-width="1.5"/>
  <rect x="20" y="96" width="740" height="20" rx="12" fill="#f7e8df"/>
  <g transform="translate(50 116)">
    <circle cx="16" cy="16" r="16" fill="#2b2825"/>
    <path d="M10 24 L10 8 L24 8 L10 24" fill="#ffffff"/>
  </g>
  <rect x="100" y="120" width="180" height="8" rx="4" fill="#e8e5dc"/>
  <rect x="100" y="134" width="220" height="6" rx="3" fill="#ece9e1"/>
  <rect x="560" y="120" width="160" height="22" rx="6" fill="#f7e8df" stroke="#d4744f" stroke-width="1"/>
  <circle cx="574" cy="131" r="4" fill="#d4744f"/>
  <rect x="586" y="127" width="120" height="8" rx="4" fill="#e8e5dc"/>

  <!-- Prisma + SQLite layer -->
  <rect x="20" y="172" width="740" height="64" rx="12" fill="#e8e5dc" stroke="#d9d4c7" stroke-width="1.5"/>
  <g transform="translate(50 188)">
    <ellipse cx="16" cy="6" rx="14" ry="4" fill="#8a7e6a"/>
    <rect x="2" y="6" width="28" height="20" fill="#b1ada1"/>
    <ellipse cx="16" cy="26" rx="14" ry="4" fill="#8a7e6a"/>
    <ellipse cx="16" cy="6" rx="14" ry="4" fill="none" stroke="#6b6557" stroke-width="1"/>
  </g>
  <rect x="100" y="196" width="160" height="8" rx="4" fill="#d9d4c7"/>
  <rect x="100" y="210" width="200" height="6" rx="3" fill="#ece9e1"/>
  <rect x="560" y="196" width="160" height="22" rx="6" fill="#ffffff" stroke="#d9d4c7"/>
  <rect x="572" y="202" width="100" height="10" rx="3" fill="#e8e5dc"/>

  <!-- UI layer -->
  <rect x="20" y="248" width="740" height="64" rx="12" fill="#2b2825"/>
  <rect x="20" y="248" width="740" height="20" rx="12" fill="#1a1815"/>
  <g transform="translate(50 268)">
    <circle cx="16" cy="16" r="14" fill="#d4744f"/>
    <path d="M9 22 L9 10 L23 10 L9 22" fill="#ffffff"/>
  </g>
  <rect x="100" y="272" width="140" height="8" rx="4" fill="#6b6557"/>
  <rect x="100" y="286" width="180" height="6" rx="3" fill="#4a463f"/>
  <rect x="560" y="270" width="40" height="22" rx="6" fill="#d4744f"/>
  <rect x="606" y="270" width="40" height="22" rx="6" fill="#4a463f"/>
  <rect x="652" y="270" width="40" height="22" rx="6" fill="#4a463f"/>
  <rect x="698" y="270" width="22" height="22" rx="6" fill="#e09a7a"/>
</svg>
