<?xml version="1.0" encoding="UTF-8"?>
<svg width="780" height="320" viewBox="0 0 780 320" xmlns="http://www.w3.org/2000/svg" role="img" aria-label="Tech stack layers">
  <!-- Telegram layer -->
  <rect x="20" y="20" width="740" height="64" rx="12" fill="#d4744f"/>
  <rect x="20" y="60" width="740" height="24" fill="#8a3f23"/>
  <g transform="translate(50 36)">
    <ellipse cx="20" cy="22" rx="20" ry="9" fill="#ffffff" opacity="0.9"/>
    <circle cx="8" cy="18" r="8" fill="#ffffff" opacity="0.9"/>
    <circle cx="22" cy="14" r="11" fill="#ffffff" opacity="0.9"/>
    <circle cx="36" cy="18" r="9" fill="#ffffff" opacity="0.9"/>
    <path d="M16 23 L30 18 L22 24 L26 26 z" fill="#d4744f"/>
  </g>
  <text x="100" y="50" font-family="system-ui, -apple-system, sans-serif" font-size="15" font-weight="700" fill="#ffffff" text-anchor="start">Telegram — durable storage substrate</text>
  <text x="100" y="66" font-family="system-ui, -apple-system, sans-serif" font-size="11" fill="#ffffff" opacity="0.85">Bot API · getFile · sendMessage · pinChatMessage · 2 GB per file</text>
  <circle cx="710" cy="52" r="14" fill="#ffffff" opacity="0.2"/>
  <circle cx="710" cy="52" r="7" fill="#ffffff" opacity="0.5"/>

  <!-- Next.js API layer -->
  <rect x="20" y="96" width="740" height="64" rx="12" fill="#ffffff" stroke="#d9d4c7" stroke-width="1.5"/>
  <rect x="20" y="96" width="740" height="20" rx="12" fill="#f7e8df"/>
  <g transform="translate(50 116)">
    <circle cx="16" cy="16" r="16" fill="#2b2825"/>
    <path d="M10 24 L10 8 L24 8 L10 24" fill="#ffffff"/>
  </g>
  <text x="100" y="126" font-family="system-ui, -apple-system, sans-serif" font-size="15" font-weight="700" fill="#2b2825" text-anchor="start">Next.js API routes — REST + dashboard + admin logic</text>
  <text x="100" y="142" font-family="system-ui, -apple-system, sans-serif" font-size="11" fill="#6b6557">/v1/* · /api/dashboard/* · /api/admin/* — Bearer-auth REST surface</text>
  <rect x="560" y="120" width="160" height="22" rx="6" fill="#f7e8df" stroke="#d4744f" stroke-width="1"/>
  <circle cx="574" cy="131" r="4" fill="#d4744f"/>
  <text x="586" y="135" font-family="system-ui, -apple-system, sans-serif" font-size="10" font-weight="600" fill="#2b2825">Next.js 16 · Turbopack</text>

  <!-- Prisma + SQLite layer -->
  <rect x="20" y="172" width="740" height="64" rx="12" fill="#e8e5dc" stroke="#d9d4c7" stroke-width="1.5"/>
  <g transform="translate(50 188)">
    <ellipse cx="16" cy="6" rx="14" ry="4" fill="#8a7e6a"/>
    <rect x="2" y="6" width="28" height="20" fill="#b1ada1"/>
    <ellipse cx="16" cy="26" rx="14" ry="4" fill="#8a7e6a"/>
    <ellipse cx="16" cy="6" rx="14" ry="4" fill="none" stroke="#6b6557" stroke-width="1"/>
  </g>
  <text x="100" y="202" font-family="system-ui, -apple-system, sans-serif" font-size="15" font-weight="700" fill="#2b2825" text-anchor="start">Prisma + SQLite — fast local index</text>
  <text x="100" y="218" font-family="system-ui, -apple-system, sans-serif" font-size="11" fill="#6b6557">User · ApiKey · Collection · Record · Log · File · AdminKey</text>
  <rect x="560" y="196" width="160" height="22" rx="6" fill="#ffffff" stroke="#d9d4c7"/>
  <text x="572" y="210" font-family="system-ui, -apple-system, sans-serif" font-size="10" font-weight="600" fill="#2b2825">single-file · zero-ops DB</text>

  <!-- UI layer -->
  <rect x="20" y="248" width="740" height="64" rx="12" fill="#2b2825"/>
  <rect x="20" y="248" width="740" height="20" rx="12" fill="#1a1815"/>
  <g transform="translate(50 268)">
    <circle cx="16" cy="16" r="14" fill="#d4744f"/>
    <path d="M9 22 L9 10 L23 10 L9 22" fill="#ffffff"/>
  </g>
  <text x="100" y="278" font-family="system-ui, -apple-system, sans-serif" font-size="15" font-weight="700" fill="#ffffff" text-anchor="start">React + shadcn/ui dashboard</text>
  <text x="100" y="294" font-family="system-ui, -apple-system, sans-serif" font-size="11" fill="#e8e5dc">warm clay theme · realtime updates · admin console · Tailwind</text>
  <rect x="560" y="270" width="40" height="22" rx="6" fill="#d4744f"/>
  <rect x="606" y="270" width="40" height="22" rx="6" fill="#4a463f"/>
  <rect x="652" y="270" width="40" height="22" rx="6" fill="#4a463f"/>
  <rect x="698" y="270" width="22" height="22" rx="6" fill="#e09a7a"/>
</svg>
