<?xml version="1.0" encoding="UTF-8"?>
<svg width="840" height="220" viewBox="0 0 840 220" xmlns="http://www.w3.org/2000/svg" role="img" aria-label="Write data flow">
  <defs>
    <marker id="arrFlow" viewBox="0 0 10 10" refX="9" refY="5" markerWidth="8" markerHeight="8" orient="auto-start-reverse">
      <path d="M0 0 L10 5 L0 10 z" fill="#d4744f"/>
    </marker>
    <linearGradient id="flowStage" x1="0" y1="0" x2="0" y2="1">
      <stop offset="0%" stop-color="#ffffff"/>
      <stop offset="100%" stop-color="#f7e8df"/>
    </linearGradient>
  </defs>

  <!-- Stage 1: set key -->
  <rect x="20" y="60" width="160" height="100" rx="14" fill="url(#flowStage)" stroke="#d4744f" stroke-width="2"/>
  <circle cx="100" cy="100" r="22" fill="#f7e8df"/>
  <path d="M88 100 L112 100 M100 88 L100 112" stroke="#d4744f" stroke-width="3" stroke-linecap="round"/>
  <rect x="40" y="135" width="120" height="8" rx="4" fill="#e8e5dc"/>

  <path d="M185 110 L215 110" fill="none" stroke="#d4744f" stroke-width="2.5" marker-end="url(#arrFlow)"/>

  <!-- Stage 2: SQLite upsert -->
  <rect x="220" y="60" width="160" height="100" rx="14" fill="url(#flowStage)" stroke="#d4744f" stroke-width="2"/>
  <g>
    <ellipse cx="300" cy="80" rx="36" ry="9" fill="#b1ada1"/>
    <rect x="264" y="80" width="72" height="40" fill="#b1ada1"/>
    <ellipse cx="300" cy="120" rx="36" ry="9" fill="#8a7e6a"/>
    <ellipse cx="300" cy="80" rx="36" ry="9" fill="none" stroke="#6b6557" stroke-width="1.2"/>
    <path d="M286 100 L300 88 L314 100 L308 100 L308 112 L292 112 L292 100 z" fill="#d4744f"/>
  </g>
  <rect x="240" y="135" width="120" height="8" rx="4" fill="#e8e5dc"/>

  <path d="M385 110 L415 110" fill="none" stroke="#d4744f" stroke-width="2.5" marker-end="url(#arrFlow)"/>

  <!-- Stage 3: Telegram mirror -->
  <rect x="420" y="60" width="160" height="100" rx="14" fill="url(#flowStage)" stroke="#d4744f" stroke-width="2"/>
  <g>
    <rect x="442" y="78" width="116" height="56" rx="10" fill="#ffffff" stroke="#d9d4c7" stroke-width="1.5"/>
    <rect x="442" y="78" width="116" height="14" rx="10" fill="#d4744f"/>
    <rect x="452" y="100" width="70" height="5" rx="2.5" fill="#e8e5dc"/>
    <rect x="452" y="110" width="90" height="5" rx="2.5" fill="#ece9e1"/>
    <rect x="452" y="120" width="50" height="5" rx="2.5" fill="#f7e8df"/>
    <circle cx="555" cy="124" r="6" fill="#d4744f"/>
  </g>
  <rect x="440" y="135" width="120" height="8" rx="4" fill="#e8e5dc"/>

  <path d="M585 110 L615 110" fill="none" stroke="#d4744f" stroke-width="2.5" marker-end="url(#arrFlow)"/>

  <!-- Stage 4: pinned manifest -->
  <rect x="620" y="60" width="200" height="100" rx="14" fill="url(#flowStage)" stroke="#d4744f" stroke-width="2"/>
  <g>
    <rect x="640" y="78" width="120" height="56" rx="10" fill="#ffffff" stroke="#d9d4c7" stroke-width="1.5"/>
    <rect x="640" y="78" width="120" height="14" rx="10" fill="#2b2825"/>
    <path d="M750 70 L758 78 L754 82 L760 88 L756 92 L750 86 L746 90 L742 86 L748 80 L744 76 z" fill="#d4744f" stroke="#8a3f23" stroke-width="1"/>
    <rect x="650" y="100" width="80" height="5" rx="2.5" fill="#e09a7a"/>
    <rect x="650" y="110" width="100" height="5" rx="2.5" fill="#ece9e1"/>
    <rect x="650" y="120" width="60" height="5" rx="2.5" fill="#ece9e1"/>
  </g>
  <rect x="640" y="135" width="120" height="8" rx="4" fill="#e8e5dc"/>
</svg>
